<svg class="w-[256px] h-[256px]" viewBox="0 0 256 256" fill="none" xmlns="http://www.w3.org/2000/svg">
    <path d="M209.455 46.5455H232.727V69.8182H209.455V46.5455Z" fill="#FF0062"/>
    <path fill-rule="evenodd" clip-rule="evenodd" d="M139.636 116.364H116.364V139.636H93.0909V162.909H69.8182V139.636H46.5454V116.364H23.2727V209.455H46.5454V232.727H69.8182V256H162.909V232.727H186.182V209.455H209.455V116.364H186.182V139.636H162.909V162.909H139.636V116.364Z" fill="#E3E4E8"/>
    <path d="M162.909 46.5455H186.182V69.8182H162.909V46.5455Z" fill="#17181C"/>
    <path fill-rule="evenodd" clip-rule="evenodd" d="M116.364 0H186.182V23.2727H209.455V46.5455V69.8182V93.0909H186.182V116.364V139.636H162.909V162.909H139.636V116.364H116.364V139.636H93.0909V162.909H69.8182V139.636H46.5454V116.364V93.0909H69.8182V69.8182H93.0909V23.2727H116.364V0ZM186.182 69.8182V46.5455H162.909V69.8182H186.182Z" fill="#FFB700"/>
</svg>
