<svg class="w-[256px] h-[256px]" viewBox="0 0 256 256" fill="none" xmlns="http://www.w3.org/2000/svg">
    <path fill-rule="evenodd" clip-rule="evenodd" d="M198.897 185.379V167.724V150.069V132.414V114.759V97.1035H181.241V79.4483H163.586V61.7931H145.931H128.276H110.621L92.9655 61.7931L75.3103 61.7931V79.4483H57.6552V97.1035H40V114.759V132.414V150.069V167.724V185.379H57.6552V203.034H75.3103V220.69H92.9655V238.345H110.621V256H128.276V238.345H145.931V220.69H163.586V203.034H181.241V185.379H198.897ZM92.9655 114.759V97.1035H110.621H128.276H145.931V114.759H163.586V132.414V150.069V167.724H145.931V185.379H128.276H110.621H92.9655V167.724H75.3103V150.069V132.414V114.759H92.9655Z" fill="#E3E4E8"/>
    <path d="M57.6552 79.4483L40 97.1035H57.6552V79.4483Z" fill="#C7C9D1"/>
    <path d="M75.3103 61.7931L57.6552 79.4483H75.3103V61.7931Z" fill="#C7C9D1"/>
    <path d="M92.9655 114.759L110.621 97.1035H92.9655V114.759Z" fill="#C7C9D1"/>
    <path d="M163.586 150.069L145.931 167.724H163.586V150.069Z" fill="#C7C9D1"/>
    <path d="M128.276 185.379H145.931V167.724H128.276H110.621V150.069H92.9655V132.414V114.759H75.3103V132.414V150.069V167.724H92.9655V185.379H110.621H128.276Z" fill="#C7C9D1"/>
    <path d="M181.241 203.034L198.897 185.379H181.241V203.034Z" fill="#C7C9D1"/>
    <path d="M163.586 220.69L181.241 203.034H163.586V220.69Z" fill="#C7C9D1"/>
    <path d="M145.931 238.345L163.586 220.69H145.931V238.345Z" fill="#C7C9D1"/>
    <path d="M128.276 256L145.931 238.345H128.276V256Z" fill="#C7C9D1"/>
    <path d="M216.552 8.82759H207.724V17.6552H216.552V8.82759Z" fill="#C7C9D1"/>
    <path d="M234.207 0H225.379H216.552V8.82759H225.379H234.207H243.034V0H234.207Z" fill="#C7C9D1"/>
    <path d="M251.862 26.4828V17.6552V8.82759H243.034V17.6552V26.4828H251.862Z" fill="#C7C9D1"/>
    <path d="M243.034 26.4828H234.207V35.3103H243.034V26.4828Z" fill="#C7C9D1"/>
    <path d="M225.379 52.9655H234.207V61.7931H225.379V52.9655Z" fill="#C7C9D1"/>
    <path d="M234.207 35.3103H225.379V44.1379H234.207V35.3103Z" fill="#C7C9D1"/>
    <path d="M198.897 185.379L216.552 167.724V150.069V132.414V114.759V97.1035V79.4483H198.897V61.7931H181.241V44.1379H163.586H145.931H128.276H110.621H92.9655L75.3103 61.7931L92.9655 61.7931L110.621 61.7931H128.276H145.931H163.586V79.4483H181.241V97.1035H198.897V114.759V132.414V150.069V167.724V185.379Z" fill="#C7C9D1"/>
</svg>
