<svg class="w-[96px] h-[96px]" viewBox="0 0 96 96" xmlns="http://www.w3.org/2000/svg">
    <path fill-rule="evenodd" clip-rule="evenodd" d="M0 11.7812C0 9.01983 2.23858 6.78125 5 6.78125H78C80.7614 6.78125 83 9.01983 83 11.7812C83 14.5427 80.7614 16.7812 78 16.7812H5C2.23858 16.7812 0 14.5427 0 11.7812ZM0 34.5938C0 31.8323 2.23858 29.5938 5 29.5938H67.5C70.2614 29.5938 72.5 31.8323 72.5 34.5938C72.5 37.3552 70.2614 39.5938 67.5 39.5938H5C2.23858 39.5938 0 37.3552 0 34.5938ZM0 61.4062C0 58.6448 2.23858 56.4062 5 56.4062H91C93.7614 56.4062 96 58.6448 96 61.4062C96 64.1677 93.7614 66.4062 91 66.4062H5C2.23858 66.4062 0 64.1677 0 61.4062ZM0 84.2188C0 81.4573 2.23858 79.2188 5 79.2188H47C49.7614 79.2188 52 81.4573 52 84.2188C52 86.9802 49.7614 89.2188 47 89.2188H5C2.23858 89.2188 0 86.9802 0 84.2188Z" stroke="transparent" fill="current"/>
</svg>