<svg class="w-[96px] h-[96px]" viewBox="0 0 96 96" fill="none" xmlns="http://www.w3.org/2000/svg">
    <path d="M20.4954 58.5137V38.6848C20.4954 33.162 24.9725 28.6848 30.4954 28.6848H48L65.5046 28.6848C71.0275 28.6848 75.5046 33.162 75.5046 38.6848V44.5679M20.4954 58.5137L5 58.5137M20.4954 58.5137C20.4954 62.3751 21.3074 66.307 22.8368 69.9178M75.5046 58.5137H91M75.5046 58.5137V44.5679M75.5046 58.5137C75.5046 62.3751 74.6926 66.307 73.1632 69.9178M67.2533 28.6848C67.2533 23.5785 65.2248 18.6814 61.6141 15.0707C58.0034 11.46 53.1063 9.43157 48 9.43157C42.8937 9.43157 37.9966 11.46 34.3859 15.0707C30.7752 18.6814 28.7467 23.5785 28.7467 28.6848M75.5046 44.5679L86.9223 38.0435M86.9223 78.8208L73.1632 69.9178M73.1632 69.9178C72.8199 70.7283 72.4404 71.5227 72.0259 72.2964C70.7985 74.5874 69.2635 76.6977 67.4487 78.5125C62.2906 83.6706 55.2947 86.5684 48 86.5684C40.7053 86.5684 33.7094 83.6706 28.5513 78.5125C26.1236 76.0848 24.1966 73.1282 22.8368 69.9178M20.4954 44.5679L9.07773 38.0435M9.07777 78.8208L22.8368 69.9178" stroke="current" fill="transparent" stroke-width="10" stroke-linecap="round" stroke-linejoin="round"/>
</svg>
