<svg class="w-[96px] h-[96px]" viewBox="0 0 96 96" fill="none" xmlns="http://www.w3.org/2000/svg">
    <path fill-rule="evenodd" clip-rule="evenodd" d="M48 96C74.5097 96 96 74.5097 96 48C96 21.4903 74.5097 0 48 0C21.4903 0 0 21.4903 0 48C0 74.5097 21.4903 96 48 96ZM34.8284 29.1716C33.2663 27.6095 30.7337 27.6095 29.1716 29.1716C27.6095 30.7337 27.6095 33.2663 29.1716 34.8284L42.3431 48L29.1716 61.1716C27.6095 62.7337 27.6095 65.2663 29.1716 66.8284C30.7337 68.3905 33.2663 68.3905 34.8284 66.8284L48 53.6569L61.1716 66.8284C62.7337 68.3905 65.2663 68.3905 66.8284 66.8284C68.3905 65.2663 68.3905 62.7337 66.8284 61.1716L53.6569 48L66.8284 34.8284C68.3905 33.2663 68.3905 30.7337 66.8284 29.1716C65.2663 27.6095 62.7337 27.6095 61.1716 29.1716L48 42.3431L34.8284 29.1716Z" fill="current" stroke="transparent"/>
</svg>
