<svg class="w-[96px] h-[96px]" viewBox="0 0 96 96" fill="none" xmlns="http://www.w3.org/2000/svg">
    <path fill-rule="evenodd" clip-rule="evenodd" d="M48 96C74.5097 96 96 74.5097 96 48C96 21.4903 74.5097 0 48 0C21.4903 0 0 21.4903 0 48C0 74.5097 21.4903 96 48 96ZM47 23C45.9125 23 44.8718 23.4428 44.1177 24.2265C43.3637 25.0101 42.9612 26.067 43.003 27.1537L44.003 53.1537C44.0856 55.3015 45.8507 57 48 57C50.1493 57 51.9144 55.3015 51.997 53.1537L52.997 27.1537C53.0388 26.067 52.6363 25.0101 51.8823 24.2265C51.1282 23.4428 50.0875 23 49 23H47ZM52 69C52 66.7909 50.2091 65 48 65C45.7909 65 44 66.7909 44 69V69.5C44 71.7091 45.7909 73.5 48 73.5C50.2091 73.5 52 71.7091 52 69.5V69Z" fill="current"/>
</svg>
