<svg class="w-[96px] h-[96px]" viewBox="0 0 96 96" fill="none" xmlns="http://www.w3.org/2000/svg">
    <path d="M20 24.7442C20 42.874 20 65.3204 20 78.0152C20 83.5381 24.4772 88 30 88H66C71.5228 88 76 83.5229 76 78V24.7442M20 24.7442C15.7042 24.7442 11 24.7442 11 24.7442M20 24.7442C26.2484 24.7442 32 24.7442 32 24.7442M76 24.7442H85M76 24.7442H64M32 24.7442H48H64M32 24.7442V18C32 12.4772 36.4772 8 42 8H54C59.5228 8 64 12.4771 64 18V24.7442" stroke="current" fill="transparent" stroke-width="10" stroke-linecap="round"/>
</svg>
