<svg class="w-[96px] h-[96px]" viewBox="0 0 96 96" fill="none" xmlns="http://www.w3.org/2000/svg">
<path d="M42 9.5L9 34.25C6.48194 36.1385 5 39.1024 5 42.25V50.6875V64.125V81C5 86.5229 9.47715 91 15 91H26.5H27.25C32.7728 91 37.25 86.5229 37.25 81V60.6875C37.25 55.1647 41.7272 50.6875 47.25 50.6875H48.75C54.2728 50.6875 58.75 55.1647 58.75 60.6875V81C58.75 86.5229 63.2272 91 68.75 91H69.5H81C86.5229 91 91 86.5229 91 81V64.125V50.6875V42.25C91 39.1024 89.5181 36.1385 87 34.25L54 9.5C50.4444 6.83333 45.5556 6.83333 42 9.5Z" stroke="current" fill="transparent" stroke-width="10"/>
</svg>
