<svg class="w-[96px] h-[96px]" viewBox="0 0 96 96" fill="none" xmlns="http://www.w3.org/2000/svg">
    <path fill-rule="evenodd" clip-rule="evenodd" d="M48 96C74.5097 96 96 74.5097 96 48C96 21.4903 74.5097 0 48 0C21.4903 0 0 21.4903 0 48C0 74.5097 21.4903 96 48 96ZM52.5 25C52.5 22.7909 50.7091 21 48.5 21C46.2909 21 44.5 22.7909 44.5 25V25.5C44.5 27.7091 46.2909 29.5 48.5 29.5C50.7091 29.5 52.5 27.7091 52.5 25.5V25ZM41 37.5C38.7909 37.5 37 39.2909 37 41.5C37 43.7091 38.7909 45.5 41 45.5H44.5V53.5V63.5H41C38.7909 63.5 37 65.2909 37 67.5C37 69.7091 38.7909 71.5 41 71.5H48.5H56C58.2091 71.5 60 69.7091 60 67.5C60 65.2909 58.2091 63.5 56 63.5H52.5V53.5V41.5C52.5 39.2909 50.7091 37.5 48.5 37.5H41Z" fill="current"/>
</svg>
