<svg class="w-[96px] h-[96px]" viewBox="0 0 96 96" fill="none" xmlns="http://www.w3.org/2000/svg">
<path fill-rule="evenodd" clip-rule="evenodd" d="M36.913 4C36.913 3.44772 37.3608 3 37.913 3H58.087C58.6392 3 59.087 3.44772 59.087 4V18.8467C59.087 19.7376 60.1641 20.1837 60.7941 19.5538L71.4233 8.9245C71.8139 8.53397 72.447 8.53397 72.8375 8.9245L87.0755 23.1625C87.466 23.553 87.466 24.1861 87.0755 24.5767L76.4462 35.2059C75.8163 35.8359 76.2624 36.913 77.1533 36.913H92C92.5523 36.913 93 37.3608 93 37.913V58.087C93 58.6392 92.5523 59.087 92 59.087H77.1533C76.2624 59.087 75.8163 60.1641 76.4462 60.7941L87.0755 71.4233C87.466 71.8139 87.466 72.447 87.0755 72.8375L72.8375 87.0755C72.447 87.466 71.8139 87.466 71.4233 87.0755L60.7941 76.4462C60.1641 75.8163 59.087 76.2624 59.087 77.1533V92C59.087 92.5523 58.6392 93 58.087 93H37.913C37.3608 93 36.913 92.5523 36.913 92V77.1533C36.913 76.2624 35.8359 75.8163 35.2059 76.4462L24.5767 87.0755C24.1861 87.466 23.553 87.466 23.1625 87.0755L8.9245 72.8375C8.53397 72.447 8.53397 71.8139 8.9245 71.4233L19.5538 60.7941C20.1837 60.1641 19.7376 59.087 18.8467 59.087H4C3.44772 59.087 3 58.6392 3 58.087V37.913C3 37.3608 3.44772 36.913 4 36.913H18.8467C19.7376 36.913 20.1837 35.8359 19.5538 35.2059L9.57667 25.2288C9.18615 24.8383 9.18615 24.2052 9.57667 23.8146L23.8146 9.57667C24.2052 9.18615 24.8383 9.18615 25.2288 9.57667L35.2059 19.5538C35.8359 20.1837 36.913 19.7376 36.913 18.8467V4ZM48 68.8696C59.5259 68.8696 68.8696 59.5259 68.8696 48C68.8696 36.4741 59.5259 27.1304 48 27.1304C36.4741 27.1304 27.1304 36.4741 27.1304 48C27.1304 59.5259 36.4741 68.8696 48 68.8696Z" fill="current"/>
</svg>
