<svg class="w-[96px] h-[96px]" viewBox="0 0 96 96" fill="none" xmlns="http://www.w3.org/2000/svg">
    <path d="M20 48C20 53.5228 15.5228 58 10 58C4.47715 58 0 53.5228 0 48C0 42.4772 4.47715 38 10 38C15.5228 38 20 42.4772 20 48Z" fill="current" stroke="transparent"/>
    <path d="M96 48C96 53.5228 91.5228 58 86 58C80.4772 58 76 53.5228 76 48C76 42.4772 80.4772 38 86 38C91.5228 38 96 42.4772 96 48Z" fill="current" stroke="transparent"/>
    <path d="M58 48C58 53.5228 53.5228 58 48 58C42.4772 58 38 53.5228 38 48C38 42.4772 42.4772 38 48 38C53.5228 38 58 42.4772 58 48Z" fill="current" stroke="transparent"/>
</svg>
