<svg class="w-[96px] h-[96px]" viewBox="0 0 96 96" fill="none" xmlns="http://www.w3.org/2000/svg">
<path fill-rule="evenodd" clip-rule="evenodd" d="M56.7903 16.7609C58.8709 14.688 62.2441 14.688 64.3247 16.7609L89.4396 41.7828C91.5201 43.8556 91.5201 47.2164 89.4396 49.2893C87.359 51.3622 83.9857 51.3622 81.9051 49.2893L60.5575 28.0207L39.2097 49.2895C37.1291 51.3624 33.7559 51.3624 31.6753 49.2895L22.885 40.5318L14.0949 49.2894C12.0143 51.3623 8.64102 51.3623 6.56044 49.2894C4.47985 47.2165 4.47985 43.8557 6.56044 41.7828L19.1178 29.272C21.1984 27.1991 24.5716 27.1991 26.6522 29.272L35.4425 38.0297L56.7903 16.7609ZM22.8858 60.3209C25.8281 60.3209 28.2134 62.6973 28.2134 65.6288L28.2135 75.4858C28.2135 78.4173 25.8282 80.7937 22.8858 80.7938C19.9434 80.7938 17.5581 78.4173 17.5581 75.4858L17.5581 70.5702C17.5581 70.5659 17.5581 70.5616 17.5581 70.5574V65.6289C17.5581 62.6974 19.9434 60.3209 22.8858 60.3209ZM60.5574 60.3209C63.4998 60.3209 65.8851 62.6974 65.8851 65.6289L65.8851 75.4858C65.8852 78.4173 63.4999 80.7938 60.5575 80.7938C57.6151 80.7938 55.2298 78.4173 55.2298 75.4858L55.2298 65.6289C55.2298 62.6974 57.615 60.3209 60.5574 60.3209Z" fill="current" stroke="current" />
</svg>
