<svg class="w-[96px] h-[96px]" viewBox="0 0 96 96" fill="none" xmlns="http://www.w3.org/2000/svg">
    <path d="M11.9489 87L63.9487 86.9999C65.2291 86.9999 66.4969 86.7477 67.6799 86.2578C68.8628 85.7678 69.9376 85.0496 70.843 84.1442C71.7483 83.2388 72.4665 82.164 72.9565 80.9811C73.4465 79.7982 73.6987 78.5304 73.6987 77.25V53M5.69873 72L21.6988 63.185M90.3013 24L73.6987 33.1629M73.6987 33.1629V18.7502C73.6987 17.4698 73.9509 16.2017 74.4408 15.0188C74.9308 13.8359 75.649 12.7611 76.5544 11.8557C77.4597 10.9503 78.5346 10.2322 79.7175 9.74217C80.9004 9.25219 82.1683 9 83.4486 9L31.4488 9.00034C30.1684 9.00034 28.9006 9.25253 27.7176 9.74251C26.5347 10.2325 25.4599 10.9507 24.5545 11.856C23.6492 12.7614 22.931 13.8362 22.441 15.0192C21.951 16.2021 21.6988 17.4698 21.6988 18.7502V63.185M73.6987 33.1629L21.6988 63.185" stroke="current" fill="transparent" stroke-width="10" stroke-linecap="round" stroke-linejoin="round"/>
</svg>
