<svg class="w-[96px] h-[96px]" viewBox="0 0 96 96" xmlns="http://www.w3.org/2000/svg">
    <path d="M0 17.1429H72C85.2548 17.1429 96 27.888 96 41.1429H24C10.7452 41.1429 0 30.3977 0 17.1429Z" fill="current" stroke="none" />
    <path d="M37.7143 66.8571C37.7143 73.4846 32.3417 78.8571 25.7143 78.8571C19.0869 78.8571 13.7143 73.4846 13.7143 66.8571C13.7143 60.2297 19.0869 54.8571 25.7143 54.8571C32.3417 54.8571 37.7143 60.2297 37.7143 66.8571Z" fill="current" stroke="none" />
    <path d="M85.0286 66.8571C85.0286 73.4846 79.656 78.8571 73.0286 78.8571C66.4012 78.8571 61.0286 73.4846 61.0286 66.8571C61.0286 60.2297 66.4012 54.8571 73.0286 54.8571C79.656 54.8571 85.0286 60.2297 85.0286 66.8571Z" fill="current" stroke="none" />
</svg>
