<svg class="w-[96px] h-[96px]" viewBox="0 0 96 96" xmlns="http://www.w3.org/2000/svg">
    <path d="M56 48.0847C56 52.503 52.4183 56.0847 48 56.0847C43.5817 56.0847 40 52.503 40 48.0847C40 43.6664 43.5817 40.0847 48 40.0847C52.4183 40.0847 56 43.6664 56 48.0847Z" fill="current"/>
    <path fill-rule="evenodd" clip-rule="evenodd" d="M77.3938 26.9925C77.1579 28.4648 76.8515 29.99 76.4764 31.5592C78.0229 32.0189 79.4969 32.5161 80.8899 33.048C85.1619 34.6791 88.8256 36.6945 91.4739 39.0852C94.1219 41.4756 96 44.4831 96 48C96 51.5169 94.1219 54.5244 91.4739 56.9148C88.8256 59.3055 85.1619 61.3209 80.8899 62.952C79.4969 63.4839 78.0229 63.9811 76.4764 64.4408C76.8515 66.01 77.1579 67.5352 77.3938 69.0075C78.1172 73.5227 78.2036 77.7032 77.4574 81.1921C76.7113 84.6805 75.0457 87.8107 72 89.5692C68.9542 91.3277 65.4107 91.2049 62.0165 90.1069C58.6219 89.0087 55.0447 86.8436 51.4961 83.9595C50.339 83.0191 49.1714 81.9911 48 80.8817C46.8286 81.9911 45.661 83.0191 44.5039 83.9595C40.9553 86.8436 37.3781 89.0087 33.9835 90.1069C30.5893 91.2049 27.0458 91.3277 24 89.5692C20.9542 87.8107 19.2887 84.6805 18.5426 81.1921C17.7964 77.7032 17.8828 73.5227 18.6062 69.0075C18.8421 67.5352 19.1485 66.01 19.5236 64.4408C17.9771 63.9811 16.5031 63.4839 15.1101 62.952C10.8381 61.3209 7.17441 59.3055 4.52609 56.9148C1.87809 54.5244 0 51.5169 0 48C0 44.4831 1.87809 41.4756 4.52609 39.0852C7.17441 36.6945 10.8381 34.6791 15.1101 33.048C16.5031 32.5161 17.9771 32.0189 19.5236 31.5592C19.1485 29.99 18.8421 28.4648 18.6062 26.9925C17.8828 22.4773 17.7964 18.2968 18.5426 14.8079C19.2887 11.3195 20.9542 8.18925 24 6.43079C27.0458 4.67232 30.5893 4.79506 33.9835 5.89309C37.3781 6.99126 40.9553 9.15642 44.5039 12.0405C45.661 12.9809 46.8286 14.0089 48 15.1183C49.1714 14.0089 50.339 12.9809 51.4961 12.0405C55.0447 9.15642 58.6219 6.99125 62.0165 5.89309C65.4107 4.79505 68.9542 4.67232 72 6.43079C75.0457 8.18925 76.7113 11.3195 77.4574 14.8079C78.2036 18.2968 78.1172 22.4773 77.3938 26.9925ZM35.7182 40.9091C37.0924 38.529 38.5172 36.2539 39.9736 34.0979C42.569 33.9146 45.2517 33.8182 48 33.8182C50.7483 33.8182 53.431 33.9146 56.0264 34.0979C57.4828 36.2539 58.9076 38.529 60.2818 40.9091C61.656 43.2892 62.9138 45.6607 64.0527 48C62.9138 50.3393 61.656 52.7108 60.2818 55.0909C58.9076 57.471 57.4828 59.7461 56.0264 61.9021C53.431 62.0854 50.7483 62.1818 48 62.1818C45.2517 62.1818 42.569 62.0854 39.9736 61.9021C38.5172 59.7461 37.0924 57.471 35.7182 55.0909C34.344 52.7108 33.0862 50.3393 31.9473 48C33.0862 45.6607 34.344 43.2892 35.7182 40.9091ZM30.522 37.9091C31.1061 36.8974 31.7 35.9019 32.3026 34.9236C30.4617 35.1936 28.6854 35.5092 26.9835 35.8661C27.5254 37.5185 28.1402 39.2146 28.8268 40.9439C29.3728 39.9329 29.938 38.9207 30.522 37.9091ZM48 27.8182C46.8318 27.8182 45.6727 27.8348 44.5242 27.8674C45.6785 26.4082 46.84 25.0277 48 23.7323C49.16 25.0277 50.3215 26.4082 51.4758 27.8674C50.3273 27.8348 49.1682 27.8182 48 27.8182ZM36.6576 28.3543C38.9849 25.0926 41.3896 22.0953 43.8123 19.4161C42.7694 18.431 41.7363 17.5229 40.7197 16.6966C37.5038 14.083 34.5797 12.3921 32.1367 11.6018C29.6933 10.8113 28.0632 11.0131 27 11.6269C25.9368 12.2408 24.947 13.5516 24.4099 16.0629C23.8728 18.5737 23.8751 21.9515 24.5306 26.0433C24.7379 27.3369 25.0078 28.6856 25.3395 30.0814C28.8711 29.3229 32.6691 28.739 36.6576 28.3543ZM59.3424 28.3543C57.0151 25.0926 54.6104 22.0953 52.1876 19.4161C53.2306 18.431 54.2637 17.5229 55.2803 16.6966C58.4962 14.0829 61.4203 12.3921 63.8633 11.6018C66.3067 10.8113 67.9368 11.0131 69 11.6269C70.0632 12.2408 71.053 13.5516 71.5901 16.0629C72.1272 18.5737 72.1249 21.9515 71.4693 26.0433C71.2621 27.3369 70.9922 28.6856 70.6605 30.0814C67.1289 29.3229 63.3308 28.739 59.3424 28.3543ZM63.6974 34.9236C65.5383 35.1936 67.3146 35.5092 69.0165 35.8661C68.4746 37.5185 67.8598 39.2146 67.1732 40.9439C66.6272 39.9329 66.062 38.9207 65.478 37.9091C64.8939 36.8974 64.3 35.9019 63.6974 34.9236ZM74.8482 37.3347C73.7393 40.7724 72.346 44.3536 70.6849 48C72.346 51.6464 73.7393 55.2276 74.8482 58.6653C76.2228 58.2547 77.5258 57.814 78.7497 57.3467C82.6211 55.8685 85.5475 54.1816 87.4534 52.4611C89.3597 50.7403 90 49.2277 90 48C90 46.7723 89.3597 45.2597 87.4534 43.5389C85.5475 41.8184 82.6211 40.1315 78.7497 38.6533C77.5258 38.186 76.2228 37.7453 74.8482 37.3347ZM65.478 58.0909C66.062 57.0793 66.6272 56.0671 67.1732 55.0561C67.8598 56.7854 68.4746 58.4815 69.0165 60.1339C67.3146 60.4908 65.5383 60.8064 63.6974 61.0764C64.3 60.0981 64.8939 59.1026 65.478 58.0909ZM59.3424 67.6457C63.3308 67.261 67.1289 66.6771 70.6605 65.9186C70.9922 67.3144 71.2621 68.6631 71.4693 69.9567C72.1249 74.0485 72.1272 77.4263 71.5901 79.9371C71.053 82.4484 70.0632 83.7592 69 84.3731C67.9368 84.9869 66.3067 85.1887 63.8633 84.3982C61.4203 83.6079 58.4962 81.9171 55.2803 79.3034C54.2637 78.4771 53.2306 77.569 52.1877 76.5839C54.6104 73.9047 57.0151 70.9074 59.3424 67.6457ZM51.4758 68.1325C50.3215 69.5918 49.16 70.9723 48 72.2677C46.84 70.9723 45.6785 69.5918 44.5242 68.1325C45.6727 68.1652 46.8318 68.1818 48 68.1818C49.1682 68.1818 50.3273 68.1652 51.4758 68.1325ZM30.522 58.0909C31.1061 59.1026 31.7 60.0981 32.3026 61.0764C30.4617 60.8064 28.6854 60.4908 26.9835 60.1339C27.5254 58.4815 28.1402 56.7854 28.8268 55.0561C29.3728 56.0671 29.938 57.0793 30.522 58.0909ZM36.6576 67.6457C32.6691 67.261 28.8711 66.6771 25.3395 65.9186C25.0078 67.3144 24.7379 68.6631 24.5306 69.9567C23.8751 74.0485 23.8728 77.4263 24.4099 79.9371C24.947 82.4484 25.9368 83.7592 27 84.3731C28.0632 84.9869 29.6933 85.1887 32.1367 84.3982C34.5797 83.6079 37.5038 81.9171 40.7197 79.3034C41.7363 78.4771 42.7694 77.569 43.8123 76.5839C41.3896 73.9047 38.9849 70.9074 36.6576 67.6457ZM17.2503 57.3467C18.4742 57.814 19.7772 58.2547 21.1518 58.6653C22.2607 55.2276 23.654 51.6464 25.3151 48C23.654 44.3536 22.2607 40.7724 21.1518 37.3347C19.7772 37.7453 18.4742 38.186 17.2503 38.6533C13.3789 40.1315 10.4525 41.8184 8.54656 43.5389C6.64031 45.2597 6 46.7723 6 48C6 49.2277 6.64031 50.7403 8.54656 52.4611C10.4525 54.1816 13.3789 55.8685 17.2503 57.3467Z" fill="current" stroke="transparent" />
</svg>

