<svg class="w-[96px] h-[96px]" viewBox="0 0 96 96" fill="none" xmlns="http://www.w3.org/2000/svg">
    <path d="M6.34176 53C4.55543 49.906 4.55543 46.094 6.34176 43L22.8408 14.4229C24.6271 11.3289 27.9284 9.4229 31.501 9.4229H64.499C68.0717 9.4229 71.3729 11.3289 73.1593 14.4229L89.6583 43C91.4446 46.094 91.4446 49.906 89.6583 53L73.1593 81.5771C71.3729 84.6711 68.0717 86.5771 64.499 86.5771H31.501C27.9283 86.5771 24.6271 84.6711 22.8408 81.5771L6.34176 53Z" stroke="current" stroke-width="10" stroke-linecap="round" stroke-linejoin="round" fill="transparent" />
    <path d="M62 48C62 55.732 55.732 62 48 62C40.268 62 34 55.732 34 48C34 40.268 40.268 34 48 34C55.732 34 62 40.268 62 48Z" stroke="current" stroke-width="10" stroke-linecap="round" stroke-linejoin="round" fill="transparent" />
</svg>
