<svg class="w-[96px] h-[96px]" viewBox="0 0 96 96" fill="none" xmlns="http://www.w3.org/2000/svg">
    <path d="M22.0001 18.7502V77.25C22.0001 78.5304 21.7479 79.7983 21.2579 80.9812C20.7679 82.1641 20.0498 83.2389 19.1444 84.1443C18.239 85.0497 17.1642 85.7678 15.9813 86.2578C14.7984 86.7478 13.5305 87 12.2501 87L64.25 86.9999C65.5304 86.9999 66.7982 86.7477 67.9811 86.2577C69.164 85.7678 70.2389 85.0496 71.1442 84.1442C72.0496 83.2389 72.7678 82.164 73.2578 80.9811C73.7478 79.7982 73.9999 78.5304 73.9999 77.25V18.7502C73.9999 17.4698 74.2521 16.2017 74.7421 15.0188C75.2321 13.8359 75.9503 12.7611 76.8556 11.8557C77.761 10.9503 78.8358 10.2322 80.0188 9.74217C81.2017 9.25219 82.4695 9 83.7499 9L31.7501 9.00034C30.4697 9.00034 29.2018 9.25253 28.0189 9.74251C26.836 10.2325 25.7612 10.9507 24.8558 11.856C23.9504 12.7614 23.2323 13.8362 22.7423 15.0192C22.2523 16.2021 22.0001 17.4698 22.0001 18.7502Z" stroke="current" fill="transparent" stroke-width="10" stroke-linejoin="round"/>
</svg>
