<svg class="w-[96px] h-[96px]" viewBox="0 0 96 96" fill="none" xmlns="http://www.w3.org/2000/svg">
<path d="M30 27.3798V2.20821C30 1.31731 31.0771 0.871139 31.7071 1.5011L46.7071 16.5011C46.8946 16.6887 47 16.943 47 17.2082V42.3798C47 43.2707 45.9228 43.7169 45.2929 43.0869L30.2929 28.0869C30.1053 27.8994 30 27.645 30 27.3798Z" fill="current"/>
<path d="M66 27.3798V2.20818C66 1.31728 64.9228 0.87111 64.2929 1.50107L49.2929 16.5011C49.1053 16.6886 49 16.943 49 17.2082V42.3798C49 43.2707 50.0771 43.7168 50.7071 43.0869L65.7071 28.0869C65.8946 27.8993 66 27.645 66 27.3798Z" fill="current"/>
<path d="M68.4142 30.2061H93.5858C94.4767 30.2061 94.9228 31.2832 94.2929 31.9132L79.2929 46.9132C79.1053 47.1007 78.851 47.2061 78.5858 47.2061H53.4142C52.5233 47.2061 52.0771 46.1289 52.7071 45.4989L67.7071 30.4989C67.8946 30.3114 68.149 30.2061 68.4142 30.2061Z" fill="current"/>
<path d="M68.4142 66.2061H93.5858C94.4767 66.2061 94.9228 65.1289 94.2929 64.4989L79.2929 49.4989C79.1053 49.3114 78.851 49.2061 78.5858 49.2061H53.4142C52.5233 49.2061 52.0771 50.2832 52.7071 50.9132L67.7071 65.9132C67.8946 66.1007 68.149 66.2061 68.4142 66.2061Z" fill="current"/>
<path d="M66 68.6203V93.7918C66 94.6827 64.9228 95.1289 64.2929 94.4989L49.2929 79.4989C49.1053 79.3114 49 79.0571 49 78.7918V53.6203C49 52.7294 50.0771 52.2832 50.7071 52.9132L65.7071 67.9132C65.8946 68.1007 66 68.3551 66 68.6203Z" fill="current"/>
<path d="M30 68.6203V93.7918C30 94.6827 31.0771 95.1289 31.7071 94.4989L46.7071 79.4989C46.8946 79.3114 47 79.0571 47 78.7918V53.6203C47 52.7294 45.9228 52.2832 45.2929 52.9132L30.2929 67.9132C30.1053 68.1007 30 68.3551 30 68.6203Z" fill="current"/>
<path d="M27.5858 66.2061H2.4142C1.5233 66.2061 1.07713 65.1289 1.7071 64.4989L16.7071 49.4989C16.8946 49.3114 17.149 49.2061 17.4142 49.2061H42.5858C43.4767 49.2061 43.9229 50.2832 43.2929 50.9132L28.2929 65.9132C28.1053 66.1007 27.851 66.2061 27.5858 66.2061Z" fill="current"/>
<path d="M27.5858 30.2061H2.41421C1.52331 30.2061 1.07714 31.2832 1.70711 31.9132L16.7071 46.9132C16.8946 47.1007 17.149 47.2061 17.4142 47.2061H42.5858C43.4767 47.2061 43.9229 46.1289 43.2929 45.4989L28.2929 30.4989C28.1054 30.3114 27.851 30.2061 27.5858 30.2061Z" fill="current"/>
</svg>
