<svg class="w-[96px] h-[96px]" viewBox="0 0 96 96" fill="none" xmlns="http://www.w3.org/2000/svg">
    <path fill-rule="evenodd" clip-rule="evenodd" d="M48 96C74.5097 96 96 74.5097 96 48C96 21.4903 74.5097 0 48 0C21.4903 0 0 21.4903 0 48C0 74.5097 21.4903 96 48 96ZM70.8287 37.8281C72.3907 36.2659 72.3904 33.7332 70.8281 32.1713C69.2659 30.6093 66.7332 30.6096 65.1713 32.1719L41.3378 56.0103L30.8279 45.5045C29.2655 43.9427 26.7328 43.9432 25.171 45.5056C23.6092 47.068 23.6097 49.6006 25.1721 51.1624L38.5108 64.4959C40.0731 66.0576 42.6056 66.0572 44.1674 64.495L70.8287 37.8281Z" fill="current"/>
</svg>
