<svg class="w-[96px] h-[96px]" viewBox="0 0 96 96" fill="none" xmlns="http://www.w3.org/2000/svg">
<path d="M21.8523 21.8523L18.5572 18.5572M55.1205 10.3407V5M10.3407 55.1205H5M49.369 22.7561C47.3847 23.1064 45.4618 23.6346 43.6174 24.3239C32.8752 28.338 24.796 37.8117 22.7562 49.369M75.6789 30.6727C88.107 43.1008 88.107 63.2508 75.6789 75.6789C63.2508 88.107 43.1008 88.107 30.6727 75.6789C27.3093 72.3156 24.8562 68.3867 23.3133 64.1985C34.6015 68.357 47.7743 65.9039 56.8391 56.8391C65.9039 47.7743 68.357 34.6015 64.1985 23.3133C68.3868 24.8562 72.3156 27.3093 75.6789 30.6727Z" stroke="current" fill="transparent" stroke-width="10" stroke-linecap="round" stroke-linejoin="round"/>
</svg>
