<svg class="w-[96px] h-[96px]" viewBox="0 0 96 96" fill="none" xmlns="http://www.w3.org/2000/svg">
    <path fill-rule="evenodd" clip-rule="evenodd" d="M54.2561 62.5702V76.2232C56.4755 77.361 59.1005 78.2141 62.1311 78.783C65.1616 79.3519 68.3555 79.6364 71.7134 79.6364C74.9858 79.6364 78.0944 79.3236 81.0395 78.6977C83.9847 78.072 86.5672 77.0408 88.7866 75.6044C91.0061 74.1682 92.7633 72.2907 94.0579 69.9726C95.3525 67.6544 96 64.7888 96 61.3757C96 58.9009 95.6302 56.7322 94.8903 54.8692C94.1504 53.0062 93.0835 51.3494 91.689 49.8987C90.2948 48.4481 88.623 47.1466 86.6738 45.9946C84.7246 44.8426 82.5265 43.7547 80.0793 42.7309C78.2866 41.9913 76.6789 41.2732 75.2561 40.5764C73.8333 39.8793 72.624 39.1683 71.628 38.4431C70.632 37.7176 69.8637 36.9496 69.3232 36.1391C68.7826 35.3283 68.5121 34.4111 68.5121 33.387C68.5121 32.4486 68.754 31.6023 69.2378 30.8485C69.7216 30.0946 70.4045 29.4477 71.2865 28.9072C72.1688 28.3669 73.2499 27.9472 74.5304 27.6486C75.8111 27.3499 77.2336 27.2007 78.7988 27.2007C79.9369 27.2007 81.1391 27.2861 82.4054 27.4566C83.6716 27.6273 84.945 27.8905 86.2257 28.2458C87.5062 28.6015 88.7509 29.0496 89.9605 29.5898C91.1697 30.1304 92.2866 30.756 93.3109 31.4673V18.7102C91.2338 17.9138 88.9645 17.3236 86.5031 16.9396C84.0417 16.5556 81.2174 16.3636 78.0305 16.3636C74.7865 16.3636 71.7134 16.7122 68.811 17.409C65.9086 18.1058 63.3548 19.1937 61.1493 20.6727C58.944 22.152 57.2013 24.0363 55.9208 26.3261C54.6404 28.6156 54 31.3533 54 34.539C54 38.6065 55.1738 42.0766 57.5215 44.9496C59.8688 47.8222 63.4328 50.2541 68.2135 52.2453C70.0915 53.0133 71.8415 53.7668 73.4635 54.5065C75.0854 55.2461 76.4869 56.0141 77.6675 56.8105C78.8485 57.6068 79.7804 58.4744 80.4635 59.4131C81.1465 60.3516 81.4879 61.4182 81.4879 62.613C81.4879 63.4947 81.2744 64.3124 80.8475 65.0662C80.4207 65.82 79.7733 66.474 78.9055 67.0287C78.0376 67.5835 76.9563 68.0171 75.6616 68.3299C74.3667 68.643 72.8517 68.7993 71.1158 68.7993C68.1565 68.7993 65.2257 68.2803 62.3231 67.242C59.4207 66.204 56.7316 64.6467 54.2561 62.5702ZM31.3036 28.9315H48.8182V17.7273H0V28.9315H17.4289V78.8182H31.3036V28.9315Z" stroke="transparent" fill="current" />
</svg>