<svg class="w-[96px] h-[96px]" viewBox="0 0 96 96" fill="none" xmlns="http://www.w3.org/2000/svg">
    <path fill-rule="evenodd" clip-rule="evenodd" d="M52.0479 8.14764C50.2488 5.0316 45.7512 5.0316 43.9521 8.14764L0.633178 83.1783C-1.16587 86.2943 1.08294 90.1894 4.68104 90.1894H91.319C94.9171 90.1894 97.1659 86.2943 95.3668 83.1783L52.0479 8.14764ZM47 36C45.9125 36 44.8718 36.4428 44.1177 37.2265C43.3637 38.0101 42.9612 39.067 43.003 40.1537L43.753 59.6537C43.8356 61.8015 45.6007 63.5 47.75 63.5C49.8993 63.5 51.6644 61.8015 51.747 59.6537L52.497 40.1537C52.5388 39.067 52.1363 38.0101 51.3823 37.2265C50.6282 36.4428 49.5875 36 48.5 36H47ZM51.75 71.5C51.75 69.2909 49.9591 67.5 47.75 67.5C45.5409 67.5 43.75 69.2909 43.75 71.5V71.875C43.75 74.0841 45.5409 75.875 47.75 75.875C49.9591 75.875 51.75 74.0841 51.75 71.875V71.5Z" fill="current"/>
</svg>
